<?xml version="1.0" standalone="no"?><!DOCTYPE svg PUBLIC "-//W3C//DTD SVG 1.1//EN" "http://www.w3.org/Graphics/SVG/1.1/DTD/svg11.dtd"><svg t="1693653194635" class="icon" viewBox="0 0 1024 1024" version="1.1" xmlns="http://www.w3.org/2000/svg" p-id="4009" xmlns:xlink="http://www.w3.org/1999/xlink" width="16" height="16"><path d="M752.264533 1022.737067c-66.013867 0-151.2448-43.9296-211.114666-80.7936-80.1792-49.3568-166.570667-117.623467-243.234134-192.238934l-0.273066-0.273066-24.337067-24.337067c-74.717867-76.561067-143.0528-162.884267-192.477867-242.961067C43.963733 422.331733 0 337.2032 0 271.2576c0-70.5536 50.517333-145.476267 72.226133-174.3872C89.156267 74.308267 148.3776 0.648533 198.690133 0.648533c20.650667 0 42.9056 13.5168 72.157867 43.793067 25.873067 26.794667 50.688 60.074667 66.935467 83.285333 21.845333 31.163733 42.052267 63.7952 56.866133 91.886934 24.029867 45.4656 26.794667 64.989867 26.794667 75.707733 0 21.6064-11.298133 40.379733-33.5872 55.739733-14.677333 10.103467-32.290133 17.7152-49.322667 25.088-11.502933 4.983467-29.832533 12.9024-36.829867 18.466134 2.423467 10.3424 13.1072 35.293867 41.949867 77.585066 26.862933 39.424 61.6448 82.158933 93.047467 114.346667 32.256 31.368533 74.990933 66.082133 114.4832 92.945067 42.325333 28.808533 67.310933 39.458133 77.653333 41.915733 5.563733-6.997333 13.5168-25.326933 18.466133-36.795733 7.3728-17.032533 14.984533-34.6112 25.122134-49.288534 15.394133-22.254933 34.167467-33.553067 55.808-33.553066 10.717867 0 30.242133 2.7648 75.776 26.760533 28.125867 14.813867 60.791467 35.0208 91.989333 56.832 23.2448 16.247467 56.558933 41.028267 83.387733 66.8672 30.3104 29.218133 43.8272 51.438933 43.8272 72.055467 0 50.244267-73.728 109.397333-96.324266 126.327466-28.9792 21.674667-103.970133 72.123733-174.626134 72.123734zM340.241067 706.628267c73.557333 71.5776 156.16 136.9088 232.618666 183.978666 74.1376 45.636267 139.537067 71.816533 179.4048 71.816534 35.5328 0 86.152533-21.674667 135.4752-57.9584 21.6064-15.906133 41.301333-33.655467 55.3984-49.902934 13.243733-15.2576 18.090667-25.224533 19.319467-29.252266-5.12-10.990933-35.498667-45.294933-106.427733-94.173867-27.818667-19.182933-56.593067-36.795733-80.9984-49.595733-30.651733-16.110933-43.4176-18.875733-46.353067-19.319467-1.1264 0.785067-4.471467 3.584-9.557333 12.049067-5.666133 9.5232-11.127467 22.1184-16.418134 34.304-6.485333 15.018667-13.2096 30.5152-21.469866 43.042133-13.4144 20.3776-29.866667 30.72-48.913067 30.72-0.341333 0-0.7168 0-1.058133-0.034133-9.284267-0.2048-37.512533-0.785067-114.176-52.9408-42.325333-28.808533-88.2688-66.116267-122.914134-99.874134l-0.546133-0.546133c-33.792-34.6112-71.168-80.520533-99.976533-122.7776-52.224-76.561067-52.804267-104.7552-53.009067-114.039467-0.4096-19.387733 9.8304-36.113067 30.446933-49.732266 12.5952-8.328533 28.2624-15.086933 43.4176-21.640534 12.219733-5.256533 24.814933-10.717867 34.338134-16.384 8.4992-5.051733 11.298133-8.3968 12.0832-9.5232-0.443733-2.935467-3.242667-15.6672-19.3536-46.2848-12.834133-24.3712-30.481067-53.111467-49.664-80.896-48.913067-70.8608-83.285333-101.205333-94.276267-106.325333-4.027733 1.2288-13.994667 6.075733-29.2864 19.285333-16.2816 14.097067-34.030933 33.757867-49.937067 55.330134-36.352 49.2544-58.026667 99.84-58.026666 135.338666 0 39.8336 26.2144 105.1648 71.8848 179.234134 47.138133 76.3904 112.5376 158.890667 184.183466 232.379733l23.790934 23.722667z m0 0" p-id="4010"></path></svg>